HIERARCHY
ROOT joint_Root
{
	OFFSET 0.0 0.0 0.0
	CHANNELS 6 Xposition Yposition Zposition Zrotation Xrotation Yrotation 
	JOINT Hips
	{
		OFFSET 4.5925 91.4895 -427.239
		CHANNELS 6 Xposition Yposition Zposition Zrotation Xrotation Yrotation 
		JOINT Spine
		{
			OFFSET 15.7357 0.0 0.0
			CHANNELS 6 Xposition Yposition Zposition Zrotation Xrotation Yrotation 
			JOINT Chest
			{
				OFFSET 8.98455 -0.406207 0.0
				CHANNELS 6 Xposition Yposition Zposition Zrotation Xrotation Yrotation 
				JOINT Neck
				{
					OFFSET 16.3773 0.0 0.0
					CHANNELS 6 Xposition Yposition Zposition Zrotation Xrotation Yrotation 
					JOINT Head
					{
						OFFSET 6.45672 0.0 0.0
						CHANNELS 6 Xposition Yposition Zposition Zrotation Xrotation Yrotation 
						End Site
						{
							OFFSET 0.0 0.0 0.0
						}
					}
				}
				JOINT Shoulder_L
				{
					OFFSET 12.9942 -0.242716 4.98039
					CHANNELS 6 Xposition Yposition Zposition Zrotation Xrotation Yrotation 
					JOINT UpperArm_L
					{
						OFFSET 5.34809 0.0 0.0
						CHANNELS 6 Xposition Yposition Zposition Zrotation Xrotation Yrotation 
						JOINT LowerArm_L
						{
							OFFSET 24.3286 1.87007e-05 0.0
							CHANNELS 6 Xposition Yposition Zposition Zrotation Xrotation Yrotation 
							JOINT Hand_L
							{
								OFFSET 22.2916 0.0 0.0
								CHANNELS 6 Xposition Yposition Zposition Zrotation Xrotation Yrotation 
								End Site
								{
									OFFSET 0.0 0.0 0.0
								}
							}
						}
					}
				}
				JOINT Shoulder_R
				{
					OFFSET 12.9945 -0.242716 -4.98039
					CHANNELS 6 Xposition Yposition Zposition Zrotation Xrotation Yrotation 
					JOINT UpperArm_R
					{
						OFFSET -5.34813 0.0 0.0
						CHANNELS 6 Xposition Yposition Zposition Zrotation Xrotation Yrotation 
						JOINT LowerArm_R
						{
							OFFSET -24.3289 0.000322201 0.0
							CHANNELS 6 Xposition Yposition Zposition Zrotation Xrotation Yrotation 
							JOINT Hand_R
							{
								OFFSET -22.2915 -0.000108084 0.0
								CHANNELS 6 Xposition Yposition Zposition Zrotation Xrotation Yrotation 
								End Site
								{
									OFFSET 0.0 0.0 0.0
								}
							}
						}
					}
				}
			}
		}
		JOINT UpperLeg_L
		{
			OFFSET -2.19248 -6.46944 0.0
			CHANNELS 6 Xposition Yposition Zposition Zrotation Xrotation Yrotation 
			JOINT LowerLeg_L
			{
				OFFSET 39.0811 0.0 -1.23785e-05
				CHANNELS 6 Xposition Yposition Zposition Zrotation Xrotation Yrotation 
				JOINT Foot_L
				{
					OFFSET 40.9854 0.0 -1.26872e-05
					CHANNELS 6 Xposition Yposition Zposition Zrotation Xrotation Yrotation 
					JOINT Toes_L
					{
						OFFSET 11.7543 0.0 0.0
						CHANNELS 6 Xposition Yposition Zposition Zrotation Xrotation Yrotation 
						End Site
						{
							OFFSET 0.0 0.0 0.0
						}
					}
				}
			}
		}
		JOINT UpperLeg_R
		{
			OFFSET -2.19251 6.46944 0.0
			CHANNELS 6 Xposition Yposition Zposition Zrotation Xrotation Yrotation 
			JOINT LowerLeg_R
			{
				OFFSET -39.0811 -0.00228153 -0.0401928
				CHANNELS 6 Xposition Yposition Zposition Zrotation Xrotation Yrotation 
				JOINT Foot_R
				{
					OFFSET -40.9854 0.0 0.0
					CHANNELS 6 Xposition Yposition Zposition Zrotation Xrotation Yrotation 
					JOINT Toes_R
					{
						OFFSET -11.7543 0.0 0.0
						CHANNELS 6 Xposition Yposition Zposition Zrotation Xrotation Yrotation 
						End Site
						{
							OFFSET 0.0 0.0 0.0
						}
					}
				}
			}
		}
	}
}
MOTION
Frames:	8
Frame Time:	0.0333333
0.000000 0.000000 0.000000 0.000000 0.000000 -0.000000 -2.299810 90.666200 -4.435190 88.454400 -2.466760 12.347600 15.735700 0.000005 -0.000001 88.295300 76.818700 -88.447100 8.984550 -0.406207 -0.000000 18.585000 -0.783235 -0.176274 16.377300 -0.000001 -0.000001 3.034590 -2.837570 1.442250 6.456720 -0.000001 -0.000000 -13.277600 -2.337330 2.225740 12.994200 -0.242716 4.980390 -91.263500 7.082230 -79.858100 5.348090 -0.000007 -0.000001 -60.159500 30.536200 -25.408500 24.328600 0.000019 0.000005 12.571200 24.656400 -28.126300 22.291600 -0.000001 0.000005 8.251110 5.214820 2.344870 12.994500 -0.242716 -4.980390 89.057500 10.004700 -84.590700 -5.348130 -0.000001 -0.000004 -60.414700 30.824200 -22.192300 -24.328900 0.000322 -0.000009 5.201930 8.962610 -30.306500 -22.291500 -0.000108 -0.000004 17.019700 5.367630 -1.913570 -2.192480 -6.469440 -0.000000 -172.544000 -12.675300 -2.527870 39.081100 -0.000007 -0.000012 -0.124860 0.190514 33.240400 40.985400 -0.000006 -0.000013 0.043914 6.765150 -67.929100 11.754300 -0.000000 0.000003 -0.000201 -0.001862 -16.647800 -2.192510 6.469440 -0.000001 176.068000 22.013500 179.379000 -39.081100 -0.002282 -0.040193 -0.159967 0.264243 31.710300 -40.985400 0.000008 0.000006 5.513540 15.113000 -68.828300 -11.754300 -0.000006 -0.000006 -0.002405 -0.033681 -17.942700
0.000000 0.000000 0.000000 0.000000 0.000000 -0.000000 -2.277340 90.668100 -4.459550 88.461000 -2.482360 12.436900 15.735700 0.000005 -0.000001 88.243700 76.779700 -88.400800 8.984550 -0.406207 -0.000000 18.662300 -0.809327 -0.181948 16.377300 -0.000001 -0.000001 3.104390 -2.878300 1.455630 6.456720 -0.000001 -0.000000 -13.329800 -2.365640 2.231290 12.994200 -0.242716 4.980390 -91.254800 7.021260 -79.840600 5.348090 -0.000007 -0.000001 -60.367900 29.975200 -25.352700 24.328600 0.000019 0.000005 12.868300 24.294900 -29.041300 22.291600 -0.000001 0.000005 8.621890 5.217980 2.264330 12.994500 -0.242716 -4.980390 89.044400 9.960560 -84.492100 -5.348130 -0.000001 -0.000004 -60.294000 30.512900 -22.383600 -24.328900 0.000322 -0.000009 5.375860 8.873260 -31.391100 -22.291500 -0.000108 -0.000004 17.146900 5.370660 -2.007040 -2.192480 -6.469440 -0.000000 -172.545000 -12.682700 -2.448890 39.081100 -0.000007 -0.000012 -0.122603 0.187134 33.231500 40.985400 -0.000006 -0.000013 0.060864 6.770110 -67.910600 11.754300 -0.000000 0.000003 -0.000202 -0.001870 -16.648100 -2.192510 6.469440 -0.000001 176.031000 21.988400 179.453000 -39.081100 -0.002282 -0.040193 -0.154073 0.254747 31.706000 -40.985400 0.000008 0.000006 5.507700 15.125300 -68.804400 -11.754300 -0.000006 -0.000006 -0.002206 -0.031262 -17.844300
0.000000 0.000000 0.000000 0.000000 0.000000 -0.000000 -2.257350 90.662100 -4.487230 88.461200 -2.482900 12.476200 15.735700 0.000005 -0.000001 88.218800 76.753700 -88.384600 8.984550 -0.406207 -0.000000 18.714000 -0.822977 -0.196736 16.377300 -0.000001 -0.000001 3.152460 -2.929550 1.479360 6.456720 -0.000001 -0.000000 -13.348400 -2.384090 2.255440 12.994200 -0.242716 4.980390 -91.239400 6.931140 -79.835800 5.348090 -0.000007 -0.000001 -60.528300 29.342800 -25.367500 24.328600 0.000019 0.000005 13.190800 23.712900 -30.234000 22.291600 -0.000001 0.000005 8.822610 5.219730 2.219700 12.994500 -0.242716 -4.980390 89.028500 9.941980 -84.390200 -5.348130 -0.000001 -0.000004 -60.202400 30.074300 -22.564500 -24.328900 0.000322 -0.000009 5.507110 8.658860 -32.641000 -22.291500 -0.000108 -0.000004 17.270900 5.370370 -1.998070 -2.192480 -6.469440 -0.000000 -172.553000 -12.685300 -2.442390 39.081100 -0.000007 -0.000012 -0.123191 0.187778 33.267000 40.985400 -0.000006 -0.000013 0.079800 6.769320 -67.916500 11.754300 -0.000000 0.000003 -0.000201 -0.001856 -16.647600 -2.192510 6.469440 -0.000001 175.993000 22.016700 179.461000 -39.081100 -0.002282 -0.040193 -0.157514 0.259960 31.741300 -40.985400 0.000008 0.000006 5.506730 15.163400 -68.800800 -11.754300 -0.000006 -0.000006 -0.002414 -0.033788 -17.947100
0.000000 0.000000 0.000000 0.000000 0.000000 -0.000000 -2.245670 90.659600 -4.552030 88.442300 -2.457840 12.463500 15.735700 0.000005 -0.000001 88.155200 76.741200 -88.316800 8.984550 -0.406207 -0.000000 18.738000 -0.852168 -0.183450 16.377300 -0.000001 -0.000001 3.205360 -2.957310 1.490790 6.456720 -0.000001 -0.000000 -13.382200 -2.393420 2.237930 12.994200 -0.242716 4.980390 -91.231300 6.864620 -79.806100 5.348090 -0.000007 -0.000001 -60.311000 28.939100 -25.625900 24.328600 0.000019 0.000005 13.655100 23.113500 -31.752300 22.291600 -0.000001 0.000005 8.687810 5.223160 2.131770 12.994500 -0.242716 -4.980390 89.016500 9.861480 -84.276000 -5.348130 -0.000001 -0.000004 -60.133000 29.556000 -22.811900 -24.328900 0.000322 -0.000009 5.706630 8.536900 -33.952400 -22.291500 -0.000108 -0.000004 17.523500 5.371880 -2.044710 -2.192480 -6.469440 -0.000000 -172.567000 -12.624400 -2.533320 39.081100 -0.000007 -0.000012 -0.123268 0.187649 33.301500 40.985400 -0.000006 -0.000013 0.087321 6.758580 -67.882300 11.754300 -0.000000 0.000003 -0.000197 -0.001832 -16.646700 -2.192510 6.469440 -0.000001 176.038000 21.970700 179.391000 -39.081100 -0.002282 -0.040193 -0.158153 0.260862 31.754100 -40.985400 0.000008 0.000006 5.476470 15.083400 -68.754800 -11.754300 -0.000006 -0.000006 -0.002467 -0.034414 -17.972500
0.000000 0.000000 0.000000 0.000000 0.000000 -0.000000 -2.230090 90.659400 -4.598030 88.451400 -2.442340 12.512000 15.735700 0.000005 -0.000001 88.135900 76.712000 -88.304900 8.984550 -0.406207 -0.000000 18.796100 -0.863463 -0.195897 16.377300 -0.000001 -0.000001 3.298250 -2.986090 1.494510 6.456720 -0.000001 -0.000000 -13.402600 -2.422960 2.228700 12.994200 -0.242716 4.980390 -91.231700 6.820110 -79.737300 5.348090 -0.000007 -0.000001 -59.990600 28.404700 -26.024100 24.328600 0.000019 0.000005 14.410800 22.775000 -33.575200 22.291600 -0.000001 0.000005 8.775520 5.223770 2.116150 12.994500 -0.242716 -4.980390 89.004100 9.799690 -84.168100 -5.348130 -0.000001 -0.000004 -60.022400 28.949700 -23.076500 -24.328900 0.000322 -0.000009 6.022620 8.529080 -35.431600 -22.291500 -0.000108 -0.000004 17.823600 5.372880 -2.075740 -2.192480 -6.469440 -0.000000 -172.572000 -12.663600 -2.517960 39.081100 -0.000007 -0.000012 -0.122547 0.186526 33.305000 40.985400 -0.000006 -0.000013 0.107758 6.778570 -67.853100 11.754300 -0.000000 0.000003 -0.000201 -0.001862 -16.647800 -2.192510 6.469440 -0.000001 176.004000 22.004400 179.403000 -39.081100 -0.002282 -0.040193 -0.158771 0.261729 31.767000 -40.985400 0.000008 0.000006 5.479420 15.103000 -68.727300 -11.754300 -0.000006 -0.000006 -0.002493 -0.034731 -17.985400
0.000000 0.000000 0.000000 0.000000 0.000000 -0.000000 -2.216210 90.660400 -4.645180 88.451300 -2.426690 12.565300 15.735700 0.000005 -0.000001 88.178300 76.683400 -88.354800 8.984550 -0.406207 -0.000000 18.853900 -0.846700 -0.213358 16.377300 -0.000001 -0.000001 3.411400 -3.010630 1.504420 6.456720 -0.000001 -0.000000 -13.418800 -2.468660 2.238490 12.994200 -0.242716 4.980390 -91.226800 6.747600 -79.670800 5.348090 -0.000007 -0.000001 -59.487200 27.934900 -26.643300 24.328600 0.000019 0.000005 15.056100 22.207900 -35.439300 22.291600 -0.000001 0.000005 9.074290 5.221080 2.184960 12.994500 -0.242716 -4.980390 88.989400 9.730310 -84.041400 -5.348130 -0.000001 -0.000004 -59.720800 28.435100 -23.475100 -24.328900 0.000322 -0.000009 6.452020 8.618650 -37.044000 -22.291500 -0.000108 -0.000004 18.083600 5.372570 -2.066290 -2.192480 -6.469440 -0.000000 -172.577000 -12.674800 -2.499660 39.081100 -0.000007 -0.000012 -0.120843 0.183913 33.307800 40.985400 -0.000006 -0.000013 0.133184 6.806890 -67.824800 11.754300 -0.000000 0.000003 -0.000214 -0.001959 -16.651300 -2.192510 6.469440 -0.000001 175.981000 22.032000 179.428000 -39.081100 -0.002282 -0.040193 -0.155957 0.257182 31.767200 -40.985400 0.000008 0.000006 5.481140 15.126900 -68.695300 -11.754300 -0.000006 -0.000006 -0.002460 -0.034333 -17.969200
0.000000 0.000000 0.000000 0.000000 0.000000 -0.000000 -2.202870 90.663600 -4.707090 88.435600 -2.412060 12.573800 15.735700 0.000005 -0.000001 88.237900 76.675000 -88.418000 8.984550 -0.406207 -0.000000 18.871500 -0.820398 -0.224647 16.377300 -0.000001 -0.000001 3.513500 -3.022680 1.528920 6.456720 -0.000001 -0.000000 -13.369000 -2.474110 2.242900 12.994200 -0.242716 4.980390 -91.217100 6.663110 -79.624200 5.348090 -0.000007 -0.000001 -59.094800 27.117200 -27.330300 24.328600 0.000019 0.000005 15.870400 21.815000 -37.417600 22.291600 -0.000001 0.000005 9.159820 5.219340 2.229640 12.994500 -0.242716 -4.980390 88.982000 9.637120 -83.941300 -5.348130 -0.000001 -0.000004 -59.388200 27.862400 -23.916600 -24.328900 0.000322 -0.000009 6.902810 8.683460 -38.729500 -22.291500 -0.000108 -0.000004 18.367800 5.373350 -2.090610 -2.192480 -6.469440 -0.000000 -172.576000 -12.667700 -2.543110 39.081100 -0.000007 -0.000012 -0.120063 0.182708 33.310300 40.985400 -0.000006 -0.000013 0.148769 6.828540 -67.780000 11.754300 -0.000000 0.000003 -0.000202 -0.001866 -16.647900 -2.192510 6.469440 -0.000001 175.993000 22.105300 179.398000 -39.081100 -0.002282 -0.040193 -0.153431 0.253246 31.752700 -40.985400 0.000008 0.000006 5.490910 15.156700 -68.641300 -11.754300 -0.000006 -0.000006 -0.002352 -0.033043 -17.916800
0.000000 0.000000 0.000000 0.000000 0.000000 -0.000000 -2.177050 90.664300 -4.778010 88.437200 -2.335890 12.585100 15.735700 0.000005 -0.000001 88.194000 76.667300 -88.381400 8.984550 -0.406207 -0.000000 18.886200 -0.841569 -0.235692 16.377300 -0.000001 -0.000001 3.641970 -3.020290 1.561490 6.456720 -0.000001 -0.000000 -13.334900 -2.462930 2.221190 12.994200 -0.242716 4.980390 -91.208800 6.580950 -79.567600 5.348090 -0.000007 -0.000001 -58.693700 26.145900 -28.124900 24.328600 0.000019 0.000005 16.665700 21.358600 -39.418700 22.291600 -0.000001 0.000005 9.336440 5.224790 2.089980 12.994500 -0.242716 -4.980390 88.982800 9.515860 -83.870200 -5.348130 -0.000001 -0.000004 -58.985300 27.245400 -24.438000 -24.328900 0.000322 -0.000009 7.266890 8.586740 -40.503300 -22.291500 -0.000108 -0.000004 18.615200 5.372790 -2.073120 -2.192480 -6.469440 -0.000000 -172.630000 -12.607800 -2.613330 39.081100 -0.000007 -0.000012 -0.119528 0.181803 33.323400 40.985400 -0.000006 -0.000013 0.169691 6.791150 -67.726800 11.754300 -0.000000 0.000003 -0.000200 -0.001851 -16.647400 -2.192510 6.469440 -0.000001 175.956000 22.188200 179.367000 -39.081100 -0.002282 -0.040193 -0.155344 0.256267 31.759800 -40.985400 0.000008 0.000006 5.484640 15.202700 -68.598500 -11.754300 -0.000006 -0.000006 -0.002554 -0.035447 -18.014600
